<svg xmlns="http://www.w3.org/2000/svg" version="1.1" xmlns:xlink="http://www.w3.org/1999/xlink" xmlns:svgjs="http://svgjs.dev/svgjs" width="349" height="350"><svg width="349" height="350" fill="none" xmlns="http://www.w3.org/2000/svg"><path d="m194.8 259.275-87.324-87.325 37.804-37.804 49.52 49.493L311.169 67.271 349 105.075l-154.2 154.2Z" fill="#ED3833"></path><path d="M224.802 263.436c-14.289 7.883-29.974 11.825-47.111 11.825-13.769 0-26.526-2.6-38.297-7.801-3.284-1.451-6.159-3.395-9.225-5.147l-63.262 15.33 20.914-64.741c-4.544-11.551-6.87-23.815-6.87-36.873 0-13.441 2.518-26.197 7.555-38.297 5.036-12.099 11.853-22.583 20.421-31.48 8.541-8.897 18.724-15.932 30.467-21.16 11.744-5.202 24.501-7.802 38.297-7.802 14.782 0 28.442 2.847 41.062 8.568 6.761 3.066 12.975 6.816 18.724 11.141l53.27-54.94c-12.729-10.84-26.881-19.874-42.539-26.991C226.363 5.158 202.876.204 177.691.204c-24.171 0-47.029 4.544-68.518 13.605-21.489 9.06-40.295 21.598-56.419 37.53-16.123 15.96-28.88 34.519-38.296 55.679C5.04 128.179.36 150.845.36 175.016c0 24.172 4.708 46.865 14.098 68.026 9.39 21.16 22.173 39.638 38.297 55.405 16.123 15.795 34.93 28.223 56.418 37.284 21.489 9.061 44.347 13.605 68.518 13.605 27.539 0 52.97-5.803 76.32-17.382 23.323-11.58 43.06-27.293 59.183-47.112l-53.407-52.887c-9.034 13.085-20.695 23.597-34.985 31.481Z" fill="#000"></path></svg><style>@media (prefers-color-scheme: light) { :root { filter: none; } }
@media (prefers-color-scheme: dark) { :root { filter: none; } }
</style></svg>